<?xml version="1.0" standalone="no"?>
<!DOCTYPE svg PUBLIC "-//W3C//DTD SVG 20010904//EN"
 "http://www.w3.org/TR/2001/REC-SVG-20010904/DTD/svg10.dtd">
<svg version="1.0" xmlns="http://www.w3.org/2000/svg"
 width="1301.000000pt" height="980.000000pt" viewBox="0 0 1301.000000 980.000000"
 preserveAspectRatio="xMidYMid meet">

<g transform="translate(0.000000,980.000000) scale(0.100000,-0.100000)"
fill="#000000" stroke="none">
<path d="M5380 8460 c20 -13 33 -13 25 0 -3 6 -14 10 -23 10 -15 0 -15 -2 -2
-10z"/>
<path d="M6285 8442 c6 -5 60 -42 120 -82 61 -41 151 -104 200 -140 110 -81
127 -91 95 -56 -36 39 -219 176 -297 222 -67 40 -136 72 -118 56z"/>
<path d="M5719 8402 c18 -15 60 -49 93 -77 93 -77 132 -105 143 -101 6 2 36
-15 67 -38 31 -22 93 -63 138 -91 69 -42 157 -108 125 -93 -62 29 -374 210
-420 244 -77 56 -208 134 -225 134 -8 0 6 -20 30 -45 24 -24 41 -47 38 -50 -3
-3 -55 14 -115 38 -134 54 -241 78 -303 69 l-44 -7 24 -16 c14 -9 72 -33 130
-54 145 -52 371 -168 356 -182 -3 -3 -45 9 -95 25 -95 33 -307 85 -323 80 -5
-2 14 -19 42 -37 47 -30 74 -65 64 -83 -7 -11 46 -43 140 -87 49 -23 87 -43
85 -45 -2 -3 -78 11 -168 31 -172 36 -216 37 -171 3 14 -11 30 -20 37 -20 6 0
20 -11 31 -25 13 -17 59 -39 148 -71 158 -56 414 -185 549 -275 184 -123 469
-402 800 -783 101 -116 221 -254 267 -306 100 -113 139 -166 116 -158 -15 6
-126 81 -218 146 -25 18 -60 35 -78 37 -18 2 -48 19 -69 39 -21 19 -68 58
-104 88 -203 162 -428 358 -528 459 -116 116 -117 109 -2 -41 92 -122 101
-130 261 -263 80 -67 186 -160 236 -207 108 -102 228 -203 339 -285 84 -62 87
-77 9 -50 -54 18 -66 15 -29 -9 14 -9 25 -23 25 -30 0 -8 36 -32 80 -55 88
-46 140 -86 140 -107 0 -20 54 -18 86 2 26 18 61 12 141 -22 17 -8 34 -14 37
-14 14 0 4 42 -14 60 -27 27 -25 30 13 30 50 0 135 -44 139 -72 2 -14 11 -24
24 -26 16 -2 23 5 32 35 11 36 10 39 -20 70 -18 18 -29 33 -25 33 11 0 118
-79 145 -106 31 -33 47 -30 72 11 21 33 23 34 48 21 15 -8 35 -24 44 -35 24
-28 35 -26 53 9 18 36 20 36 64 9 30 -18 33 -24 28 -55 -4 -25 -2 -34 6 -31 7
2 11 18 9 37 -2 21 0 30 7 26 7 -5 8 -1 5 9 -4 8 -1 22 5 29 13 16 45 10 97
-17 37 -19 51 -12 56 28 4 29 5 29 14 8 9 -21 11 -22 38 -8 15 8 32 13 36 10
4 -3 13 2 20 10 7 8 20 15 29 15 9 0 27 7 39 16 23 16 59 15 154 -1 31 -6 36
-4 35 12 -2 12 4 17 16 15 10 -2 31 7 48 19 17 12 38 19 50 16 12 -3 23 1 28
11 15 29 53 195 56 243 1 29 18 81 44 136 67 147 98 253 73 253 -23 0 -52 -34
-57 -68 -9 -52 -33 -106 -64 -141 -42 -47 -83 -115 -173 -286 -39 -74 -68
-140 -68 -153 0 -15 -13 -15 -26 -2 -7 7 -2 28 17 68 14 31 50 128 78 216 28
87 55 163 60 170 13 16 51 149 51 180 0 23 -4 26 -35 26 -33 0 -37 -4 -55 -46
-11 -25 -20 -52 -20 -59 0 -15 -31 -85 -109 -247 -28 -59 -54 -122 -58 -140
-8 -45 -22 -70 -35 -62 -12 8 -5 132 23 404 10 102 19 204 19 228 0 24 5 53
11 64 8 15 8 36 -1 80 l-13 59 -19 -43 c-37 -81 -48 -121 -58 -212 -6 -50 -22
-146 -35 -214 -14 -68 -25 -126 -25 -128 0 -3 -5 -2 -11 1 -6 4 -18 -3 -26
-15 -31 -43 -36 -7 -57 375 -8 134 -21 238 -48 370 -19 97 -28 126 -28 91 0
-33 -19 -5 -40 60 -13 37 -29 78 -36 93 -8 14 -14 30 -14 34 0 14 -73 167 -77
163 -3 -3 18 -65 46 -139 91 -244 112 -371 110 -682 -1 -249 -11 -382 -33
-403 -15 -15 -18 -15 -26 -2 -16 24 -29 80 -56 233 -28 162 -96 433 -155 617
-40 123 -120 332 -126 327 -1 -2 14 -55 35 -118 51 -150 60 -189 29 -129 -12
25 -33 70 -46 100 -25 58 -35 81 -126 280 -69 149 -141 291 -157 305 -8 7 -9
6 -5 -5 27 -69 76 -181 130 -297 123 -264 213 -498 262 -691 48 -182 90 -586
66 -630 -25 -48 -38 -27 -109 178 -66 192 -119 338 -136 375 -7 17 -22 57 -34
90 -37 108 -83 209 -102 228 -11 10 -20 22 -20 27 0 26 -214 361 -320 499
-117 155 -279 336 -375 421 -37 32 58 -91 150 -195 228 -259 440 -598 555
-885 161 -401 221 -634 191 -740 -7 -24 -7 -24 -27 10 -42 70 -84 149 -182
340 -54 107 -118 226 -141 264 -24 38 -47 80 -52 94 -5 13 -19 38 -30 54 -12
16 -22 35 -23 43 -1 8 -12 24 -24 35 -12 12 -22 29 -22 39 0 11 -6 21 -13 24
-7 3 -45 47 -84 98 -157 208 -387 437 -589 589 -154 116 -456 304 -475 298
-13 -4 172 -146 340 -261 80 -55 188 -133 239 -175 293 -237 605 -658 790
-1067 76 -168 102 -243 112 -330 4 -38 13 -83 20 -100 14 -38 -3 -22 -29 26
-10 19 -25 34 -32 34 -8 0 -13 8 -13 18 1 9 -1 15 -5 12 -4 -2 -16 10 -26 28
-31 55 -148 231 -174 263 -14 17 -42 53 -61 78 -19 26 -58 75 -85 109 -28 34
-80 100 -117 147 -36 47 -75 94 -87 104 -12 11 -21 23 -21 27 0 4 -12 21 -26
36 -123 131 -150 164 -126 149 23 -14 0 20 -72 110 -63 79 -172 177 -289 263
-76 55 -340 224 -447 286 -47 26 -148 91 -225 143 -140 94 -187 122 -202 121
-4 0 7 -12 26 -27z m479 -447 c181 -86 513 -318 645 -450 314 -312 567 -654
653 -883 28 -74 28 -73 10 -66 -11 4 -13 0 -9 -17 10 -36 -9 -17 -113 114 -54
67 -139 165 -189 217 -132 136 -182 195 -206 243 -30 58 -170 264 -217 318
-21 24 -78 91 -126 149 -106 126 -167 174 -351 276 -156 86 -195 111 -195 125
0 16 24 10 98 -26z m232 -39 c0 -2 -9 -2 -20 1 -11 3 -20 9 -20 15 0 5 9 4 20
-2 11 -6 20 -12 20 -14z m274 -623 c63 -34 475 -503 560 -635 57 -89 49 -100
-29 -38 -27 22 -56 40 -63 40 -28 0 -383 382 -495 532 -32 42 -71 91 -87 108
-21 23 -30 42 -30 67 l0 34 61 -48 c33 -26 71 -53 83 -60z m-154 87 c0 -5 -5
-10 -11 -10 -5 0 -7 5 -4 10 3 6 8 10 11 10 2 0 4 -4 4 -10z m690 -790 c0 -5
-2 -10 -4 -10 -3 0 -8 5 -11 10 -3 6 -1 10 4 10 6 0 11 -4 11 -10z m39 -44
c-3 -3 -11 5 -18 17 -13 21 -12 21 5 5 10 -10 16 -20 13 -22z m-258 -12 l24
-27 -27 18 c-16 9 -28 21 -28 26 0 14 5 11 31 -17z m259 -284 c8 -5 11 -10 5
-10 -5 0 -17 5 -25 10 -8 5 -10 10 -5 10 6 0 17 -5 25 -10z m690 -95 c7 -8 8
-15 2 -15 -5 0 -15 7 -22 15 -7 8 -8 15 -2 15 5 0 15 -7 22 -15z"/>
<path d="M5034 7935 c-3 -8 -15 -17 -26 -21 -34 -10 -5 -25 58 -28 78 -4 153
-41 238 -118 37 -33 69 -58 72 -55 3 3 -10 30 -30 61 -41 64 -109 113 -209
151 -78 29 -95 31 -103 10z"/>
<path d="M5171 7539 c47 -72 109 -180 109 -188 0 -5 -4 -11 -10 -13 -16 -5 30
-88 74 -134 40 -41 121 -79 192 -91 43 -7 51 11 18 39 -95 80 -142 129 -328
346 -51 60 -81 82 -55 41z"/>
<path d="M4265 7535 c17 -8 84 -37 150 -65 66 -28 165 -76 220 -107 112 -63
264 -163 248 -163 -5 0 -57 21 -114 46 -213 94 -507 198 -478 169 8 -8 23 -16
34 -18 22 -4 61 -21 85 -37 8 -5 31 -16 50 -24 62 -27 154 -83 199 -122 79
-68 126 -92 356 -177 52 -19 198 -96 239 -126 22 -16 56 -36 75 -46 109 -54
137 -71 171 -105 26 -26 35 -41 28 -48 -7 -7 1 -20 23 -40 19 -17 31 -33 28
-36 -3 -3 -41 11 -85 30 -43 20 -98 45 -121 55 -24 10 -43 23 -43 28 0 5 -17
12 -37 16 -20 4 -69 22 -107 42 -265 132 -579 201 -848 188 -76 -4 -137 -9
-136 -11 2 -2 67 -10 143 -19 195 -22 295 -42 401 -81 51 -19 99 -34 108 -34
21 0 103 -41 136 -68 32 -26 19 -39 -23 -24 -40 14 -77 16 -77 3 0 -11 64 -34
100 -37 31 -2 100 -28 109 -41 6 -10 86 -42 159 -64 24 -7 53 -22 66 -34 13
-12 38 -27 57 -34 60 -23 104 -49 107 -65 5 -22 -8 -20 -98 15 -51 19 -80 36
-80 45 0 11 -6 13 -20 9 -14 -4 -49 7 -104 34 -46 23 -91 41 -100 41 -21 0
-131 37 -168 56 -16 8 -51 17 -79 20 -28 2 -79 11 -112 18 -34 8 -86 14 -116
15 -30 1 -59 5 -65 9 -30 18 -481 38 -491 22 -4 -6 3 -10 14 -10 11 0 29 -9
40 -21 11 -12 24 -18 29 -15 6 3 41 2 79 -4 37 -5 71 -6 76 -1 10 10 97 -3
106 -17 3 -5 47 -12 96 -15 50 -3 104 -12 120 -19 26 -11 8 -13 -149 -16 -99
-1 -182 1 -185 5 -8 11 -171 11 -171 1 0 -12 -108 -10 -115 2 -4 6 -10 8 -14
6 -4 -3 -42 -12 -83 -21 -95 -19 -214 -59 -233 -78 -12 -12 -6 -15 41 -16 30
0 73 6 96 15 24 8 75 18 113 21 39 3 75 9 81 14 18 15 98 18 114 4 18 -15 180
-26 180 -12 0 17 102 -3 147 -30 37 -21 51 -24 86 -18 23 3 56 9 72 12 23 3
35 -1 50 -17 16 -17 17 -23 6 -30 -19 -11 -289 -1 -325 13 -43 16 -67 16 -73
0 -9 -23 18 -41 71 -49 44 -6 49 -5 42 11 -5 15 -2 16 26 11 18 -3 69 -8 113
-12 44 -4 82 -10 85 -14 7 -9 321 -48 343 -42 30 8 18 22 -19 22 -48 0 -129
36 -150 67 l-16 26 46 -7 c26 -4 70 -14 99 -22 29 -8 72 -17 97 -21 l45 -6
-25 21 c-33 27 -24 33 28 20 47 -12 53 -24 18 -38 -50 -19 -37 -36 29 -41 35
-2 45 1 45 14 0 7 5 18 11 24 15 15 102 -14 95 -32 -5 -14 14 -25 40 -25 8 0
51 -14 95 -31 67 -26 83 -36 91 -59 13 -38 57 -50 76 -22 13 20 13 20 63 0 56
-23 63 -38 19 -38 -16 0 -30 -4 -30 -9 0 -8 44 -23 72 -25 3 -1 10 -4 14 -8 4
-5 15 -8 24 -8 9 0 26 -9 37 -19 28 -26 210 -111 238 -111 22 0 85 -27 85 -37
0 -7 -55 6 -130 30 -36 12 -67 21 -70 22 -3 0 -24 8 -45 17 -91 38 -240 78
-395 106 -353 64 -524 76 -1040 70 -447 -5 -489 -10 -742 -74 -216 -54 -420
-150 -503 -234 l-50 -52 93 57 c114 69 187 103 317 148 241 83 372 109 626
123 116 7 136 -1 102 -38 -38 -42 -136 -80 -336 -129 -291 -71 -334 -84 -506
-154 -86 -34 -217 -79 -291 -100 -74 -20 -173 -48 -220 -62 -124 -36 -199 -52
-250 -53 -25 0 -62 -4 -82 -9 -21 -5 -36 -5 -33 -1 5 9 -197 3 -235 -7 -14 -3
-29 -5 -34 -4 -5 1 -16 -1 -24 -4 -13 -5 -12 -8 4 -20 18 -14 18 -15 -3 -21
-13 -3 -23 -11 -23 -16 0 -5 -10 -18 -22 -29 l-23 -18 50 -1 c64 0 121 -16
129 -35 3 -8 13 -15 22 -15 9 0 37 -6 63 -14 40 -13 71 -20 191 -42 14 -3 44
-5 68 -4 23 0 42 -3 42 -8 0 -4 14 -7 30 -6 17 1 33 -2 36 -7 9 -15 47 -10
120 14 38 13 74 22 80 20 6 -2 23 3 39 11 37 20 55 8 24 -15 -51 -39 -68 -54
-64 -57 6 -6 -22 -32 -33 -32 -5 0 -36 -30 -68 -67 -31 -38 -80 -92 -108 -122
l-51 -54 60 38 c99 62 195 144 293 252 51 55 112 114 135 130 23 15 46 34 50
41 11 17 97 60 177 88 36 13 83 30 105 39 l40 15 -77 -6 c-43 -4 -78 -3 -78 0
0 20 319 136 373 136 9 0 19 5 23 11 4 8 -3 9 -22 5 -142 -29 -116 -9 50 38
203 57 648 139 826 152 171 13 526 -28 671 -76 30 -11 68 -22 85 -25 16 -4 54
-12 84 -19 30 -7 78 -23 105 -36 28 -13 52 -24 55 -24 40 -9 183 -48 194 -54
21 -11 -20 -18 -72 -11 -97 13 -202 15 -202 4 0 -5 -4 -4 -9 4 -7 10 -20 12
-52 7 -24 -4 -51 -7 -59 -7 -8 0 -116 0 -239 0 -310 1 -479 -19 -751 -90 -183
-47 -193 -50 -188 -54 4 -4 161 22 191 31 30 10 87 12 87 3 0 -4 -33 -19 -72
-34 -40 -15 -86 -33 -103 -40 -16 -8 -41 -17 -55 -21 -28 -8 -107 -41 -130
-55 -8 -5 -38 -20 -67 -34 -36 -18 -50 -30 -46 -41 5 -13 7 -12 17 2 7 9 19
15 27 13 7 -1 30 5 49 14 168 78 319 126 545 172 246 50 514 59 470 16 -12
-11 -110 -44 -210 -71 -95 -26 -426 -136 -496 -166 -148 -62 -358 -169 -437
-223 -146 -100 -353 -282 -432 -381 -46 -56 -97 -116 -137 -160 -18 -19 -33
-38 -33 -42 0 -14 -107 -136 -224 -255 -66 -68 -115 -123 -110 -123 13 0 171
157 424 420 411 428 536 522 810 609 337 106 402 122 415 102 3 -6 -116 -71
-265 -145 -148 -75 -301 -156 -339 -181 -38 -25 -133 -105 -212 -178 -141
-131 -651 -636 -699 -692 -22 -25 -18 -24 23 8 26 21 47 35 47 32 0 -8 -54
-78 -92 -120 -15 -16 -28 -33 -28 -37 0 -22 33 0 100 66 41 41 76 73 78 71 3
-2 22 7 43 21 25 15 39 20 39 12 0 -11 -180 -261 -199 -278 -4 -3 -50 -59
-103 -126 -53 -66 -135 -162 -183 -212 -48 -51 -83 -92 -77 -92 6 0 14 5 17
10 3 5 17 10 30 10 13 0 30 6 37 13 19 17 90 71 108 82 31 19 -133 -181 -204
-247 -62 -60 -39 -64 34 -7 56 44 72 47 41 7 -11 -14 -29 -47 -39 -74 -11 -27
-45 -102 -75 -166 -30 -64 -53 -119 -50 -122 6 -6 48 24 127 88 79 65 38 10
-68 -92 -53 -50 -139 -128 -191 -173 -90 -76 -113 -105 -67 -80 34 18 47 13
26 -10 -19 -21 -19 -21 21 1 85 47 161 95 195 122 19 15 40 28 46 28 6 0 19 9
29 20 10 11 23 20 29 20 7 0 55 32 109 70 53 39 99 70 102 70 13 0 1 -51 -41
-167 -48 -135 -130 -313 -144 -313 -5 0 -19 -15 -32 -32 l-23 -33 28 18 c15
10 32 15 38 11 6 -3 31 8 55 26 24 17 48 29 53 26 9 -6 191 180 191 195 0 5 7
9 16 9 19 0 -112 -170 -214 -280 -19 -19 -43 -48 -54 -64 l-21 -28 23 7 c13 4
38 21 54 37 17 15 55 40 84 55 54 26 74 47 87 92 4 14 16 38 27 55 l20 31 -6
-32 c-4 -24 -2 -31 8 -27 14 5 14 7 1 -106 -4 -39 -3 -51 4 -40 8 12 11 7 11
-19 l0 -34 33 43 c17 23 41 57 52 75 61 101 88 150 88 161 0 20 37 51 108 92
44 27 63 44 66 61 3 22 1 23 -32 18 -52 -8 -43 10 14 27 135 40 177 74 256
211 15 28 37 56 47 63 10 7 18 24 18 38 0 14 6 24 15 24 8 0 19 9 25 21 21 39
21 11 0 -30 -11 -23 -16 -41 -11 -41 5 0 11 7 15 15 8 23 23 18 33 -12 l9 -26
24 34 c14 18 41 65 61 104 48 93 112 192 116 179 2 -5 -3 -32 -11 -59 -9 -27
-14 -50 -13 -52 2 -1 14 19 27 45 14 26 29 49 33 50 4 2 30 37 58 78 58 87
297 346 355 386 24 16 76 35 134 49 81 19 112 21 213 16 96 -5 146 -2 275 19
173 27 292 62 455 135 136 61 218 114 334 217 106 94 147 121 223 153 72 30
141 71 215 129 58 46 143 90 171 90 31 0 12 -50 -47 -126 -34 -44 -83 -110
-108 -149 -26 -38 -85 -123 -131 -189 -81 -114 -83 -119 -72 -150 21 -58 14
-101 -31 -188 -23 -46 -63 -110 -87 -143 -73 -98 -92 -128 -95 -150 -1 -11 -6
-29 -10 -40 -5 -13 6 -7 33 19 23 22 42 49 44 60 2 15 11 22 31 24 15 2 27 1
27 -3 0 -13 -33 -55 -44 -55 -6 0 -23 -19 -38 -43 -15 -23 -50 -68 -79 -100
-28 -32 -49 -60 -47 -62 7 -8 178 171 178 186 0 8 16 28 36 44 20 17 59 51 87
78 27 26 52 45 55 42 3 -3 -13 -33 -36 -66 -23 -33 -42 -68 -42 -77 0 -9 -9
-28 -20 -42 -27 -34 -25 -44 5 -24 13 8 28 13 33 10 5 -3 26 13 47 34 54 56
66 52 40 -12 -11 -27 12 -22 41 9 l26 28 -18 -40 c-10 -22 -26 -52 -36 -67
-10 -14 -18 -30 -18 -36 0 -5 -7 -15 -15 -22 -8 -7 -15 -22 -15 -34 0 -29 -62
-124 -77 -119 -7 3 -22 -15 -33 -39 -12 -24 -37 -65 -55 -93 -18 -27 -65 -106
-105 -175 -40 -69 -83 -142 -97 -163 -13 -22 -23 -41 -20 -43 7 -8 122 147
187 252 34 54 79 120 101 146 21 26 39 55 39 66 0 22 55 102 70 102 18 0 11
-68 -11 -105 -36 -61 -13 -50 30 14 23 34 44 61 46 61 7 0 -15 -54 -29 -70 -8
-8 -21 -30 -30 -48 -17 -34 -40 -42 -50 -17 -6 17 -26 20 -26 4 0 -6 -31 -64
-69 -128 -37 -64 -78 -136 -89 -161 -28 -59 -115 -196 -227 -356 -50 -71 -122
-176 -159 -234 -38 -58 -90 -132 -116 -165 -61 -78 -68 -90 -47 -82 9 3 17 1
19 -5 3 -7 37 32 77 86 67 90 101 116 93 70 -5 -29 12 -7 48 61 18 33 45 79
61 102 16 23 29 44 29 47 0 5 75 113 157 227 89 122 253 318 299 356 25 21 61
58 81 83 26 34 33 39 28 20 -8 -24 -152 -332 -195 -414 -63 -122 53 46 155
224 80 139 129 214 132 203 7 -21 -135 -336 -307 -679 -96 -192 -215 -433
-264 -533 -48 -101 -102 -203 -118 -227 -30 -44 -91 -203 -142 -369 -16 -49
-36 -108 -46 -130 -20 -44 -25 -60 -46 -155 -26 -112 -28 -131 -13 -125 15 6
49 60 49 76 0 6 9 19 19 30 l19 21 11 -20 c6 -12 11 -40 11 -64 0 -53 7 -63
45 -65 33 -1 45 10 45 45 0 46 17 20 26 -40 5 -35 13 -62 19 -61 10 2 26 55
45 151 13 61 21 70 49 53 12 -8 11 -19 -3 -75 -20 -79 -20 -76 0 -76 19 0 13
-22 -28 -104 -19 -38 -26 -62 -19 -69 6 -6 28 18 62 71 31 47 58 78 65 75 14
-5 42 33 49 65 2 11 8 30 14 41 6 11 11 29 11 40 0 12 5 21 11 21 5 0 7 5 4
10 -3 6 1 10 9 10 9 0 18 11 22 24 5 22 34 46 34 28 -1 -15 -37 -109 -57 -147
-34 -65 -38 -102 -14 -117 12 -7 21 -18 21 -25 0 -27 25 -22 85 17 65 42 65
42 132 35 38 -4 110 -7 161 -6 64 1 99 -3 115 -13 45 -29 404 10 562 60 51 17
153 65 309 148 49 26 91 45 93 42 7 -7 -27 -68 -64 -113 -52 -65 -216 -197
-296 -239 -40 -21 -101 -48 -137 -60 l-65 -23 45 0 c169 -2 413 151 563 353
29 39 73 113 99 166 l47 95 0 -45 c0 -25 -4 -63 -10 -85 -13 -52 -12 -206 2
-220 7 -7 14 -5 23 7 7 10 17 18 23 18 5 0 15 22 22 50 7 27 17 50 21 50 9 0
91 85 169 175 60 68 114 173 136 260 8 33 26 162 40 286 19 169 34 257 60 349
19 68 33 126 31 128 -2 1 -36 -5 -75 -14 -62 -15 -75 -15 -97 -3 -15 7 -28 19
-31 25 -2 7 30 47 71 90 82 85 106 112 106 118 0 5 -135 -28 -190 -46 -123
-41 -128 -31 -10 21 131 58 180 81 180 86 0 3 -3 4 -7 4 -5 -1 -17 -1 -28 0
-19 2 -19 2 3 14 12 7 29 23 38 35 15 22 15 22 -23 16 -33 -5 -138 -41 -385
-130 -36 -13 -88 -27 -115 -29 -45 -5 -42 -3 42 28 50 19 117 47 150 62 33 15
119 47 190 72 72 24 134 48 138 53 14 13 -23 60 -48 60 -12 0 -78 -11 -146
-25 -159 -33 -226 -43 -324 -49 l-80 -6 75 20 c41 11 147 33 235 50 214 40
212 40 195 50 -8 5 -17 7 -20 5 -3 -1 -59 -6 -125 -9 -66 -4 -200 -16 -298
-27 -98 -11 -183 -19 -189 -17 -24 8 289 58 432 69 225 17 302 39 224 64 -19
6 -68 8 -120 4 -160 -13 -589 -22 -629 -15 -75 14 -13 24 235 36 321 15 500
42 500 76 0 9 -7 14 -18 12 -11 -2 -26 3 -34 9 -8 7 -48 15 -89 19 -89 7 -320
48 -398 70 -31 9 -90 28 -131 44 -41 15 -92 31 -114 34 -21 4 -36 10 -32 13 7
8 125 -15 226 -43 101 -28 319 -63 410 -65 69 -1 190 18 190 31 0 5 -19 11
-42 15 -82 13 -117 27 -120 48 -2 16 -26 28 -118 60 -63 21 -126 40 -140 42
-44 6 -244 77 -260 93 -13 13 -11 14 20 8 31 -5 120 -31 250 -71 54 -16 178
-27 185 -15 7 11 -188 103 -270 128 -39 11 -96 27 -127 37 -32 9 -58 20 -58
25 0 13 91 0 110 -15 8 -7 21 -10 27 -8 11 4 43 -4 179 -47 17 -6 37 -10 46
-10 9 0 21 -6 28 -14 6 -8 48 -27 92 -42 66 -22 84 -24 105 -15 20 9 29 8 50
-9 31 -24 43 -25 43 -5 0 18 -55 47 -135 70 -134 39 -247 89 -256 111 -6 18
-32 31 -116 59 -107 36 -107 36 -50 31 35 -3 84 -17 124 -35 69 -33 88 -38 77
-20 -4 8 1 9 17 4 51 -14 79 -28 73 -36 -3 -5 -14 -4 -25 2 -12 6 -23 9 -25 7
-12 -12 92 -50 139 -50 151 -2 154 4 43 71 -41 24 -92 60 -114 80 -22 20 -56
47 -76 61 -54 38 -43 44 17 9 28 -17 95 -52 149 -78 53 -26 102 -52 110 -58 7
-6 32 -18 55 -26 38 -13 44 -13 58 3 8 9 15 20 15 25 0 5 9 19 21 31 l21 22
-84 63 c-78 59 -298 268 -298 284 0 6 120 -94 145 -121 36 -39 236 -183 248
-179 7 3 20 -1 27 -10 7 -8 28 -15 47 -15 19 0 47 -7 64 -16 16 -8 38 -13 48
-9 18 5 52 -26 84 -77 10 -15 42 -43 72 -63 30 -19 55 -39 55 -45 0 -15 -37
-12 -72 6 -27 14 -30 14 -25 1 6 -17 -12 -27 -49 -27 -13 0 -24 -5 -24 -11 0
-8 -4 -8 -12 -2 -7 5 -46 11 -87 12 -41 1 -78 4 -82 7 -5 3 -14 2 -19 -1 -19
-12 11 -35 45 -35 18 0 50 -7 70 -16 21 -9 50 -13 64 -11 17 4 34 -3 54 -19
16 -13 34 -25 40 -25 7 -1 21 -3 32 -4 11 -1 56 -12 99 -25 54 -16 73 -26 63
-32 -13 -7 -244 -14 -272 -8 -5 1 -21 2 -35 1 -28 -2 11 -16 132 -46 37 -10
66 -21 63 -25 -2 -4 -64 -10 -136 -14 -237 -12 -182 -30 134 -42 l187 -7 -37
-22 c-34 -19 -115 -47 -268 -92 -27 -8 -54 -16 -60 -18 -42 -14 101 0 222 21
81 14 164 27 183 30 l35 5 -23 -20 c-12 -11 -66 -36 -120 -57 -103 -39 -140
-61 -84 -49 17 4 32 4 32 1 0 -3 -32 -24 -70 -47 -39 -23 -69 -44 -66 -46 2
-3 69 25 148 60 281 127 328 144 328 120 0 -25 -61 -74 -179 -143 -137 -80
-147 -87 -140 -94 7 -7 134 55 244 118 80 46 95 52 95 38 0 -8 -98 -111 -171
-179 -92 -86 -86 -99 13 -26 34 26 109 94 166 151 56 58 102 97 102 89 0 -49
-76 -191 -163 -304 -27 -36 -46 -67 -44 -70 18 -17 175 192 234 311 27 57 43
71 43 39 0 -24 -28 -157 -45 -215 -8 -27 -10 -48 -5 -48 10 0 38 73 70 180 12
41 26 79 31 85 8 8 15 -135 9 -190 -4 -35 11 -9 26 46 7 30 14 82 14 117 0 74
11 74 35 -1 23 -70 39 -85 32 -29 -3 24 -1 57 4 74 5 20 4 47 -3 76 -9 36 -8
46 3 53 12 7 12 9 -1 10 -8 0 -3 5 12 11 24 8 26 12 17 30 -11 21 -3 20 29 -5
20 -15 81 -16 75 -1 -2 7 -11 10 -19 7 -19 -7 -18 0 7 44 27 48 35 57 43 45 3
-6 -1 -17 -9 -25 -8 -9 -15 -19 -15 -23 0 -5 5 -3 11 3 7 7 24 10 38 7 33 -7
72 29 53 48 -7 7 -12 8 -12 4 0 -5 -7 -3 -15 4 -12 10 -13 16 -4 26 8 10 8 14
0 14 -6 0 -11 7 -11 15 0 22 27 18 33 -5 6 -21 27 -28 27 -8 0 6 13 -1 29 -16
16 -15 32 -28 35 -27 12 2 55 -42 50 -51 -9 -13 28 -9 45 6 9 7 26 17 39 20
18 6 22 3 22 -13 0 -25 13 -27 30 -6 11 13 8 21 -15 45 -16 17 -36 30 -44 30
-9 0 -3 7 13 15 15 8 39 15 52 15 20 0 24 -5 24 -30 0 -35 17 -46 88 -56 29
-3 52 -10 52 -13 0 -4 8 -8 18 -9 96 -10 130 -15 145 -23 9 -6 22 -7 27 -4 5
3 39 1 76 -6 59 -10 68 -10 82 6 10 10 12 15 5 11 -19 -11 -82 21 -140 70 -49
42 -63 71 -28 57 9 -3 22 0 30 7 8 7 15 8 15 3 0 -5 17 -15 38 -21 60 -18 94
-23 88 -14 -3 4 11 7 30 6 19 -2 32 1 29 6 -3 5 0 12 6 15 5 4 8 14 5 22 -9
22 13 46 29 33 9 -8 14 -5 18 9 5 20 40 26 62 10 6 -3 31 -10 57 -13 40 -6 47
-5 42 7 -3 8 -1 18 5 21 6 4 8 13 4 21 -3 8 0 15 6 15 6 0 11 -5 11 -11 0 -6
7 -9 15 -5 8 3 15 1 15 -4 0 -5 11 -21 24 -35 18 -19 33 -26 53 -23 26 3 28 6
26 41 l-3 39 36 -31 c41 -37 66 -39 116 -8 47 29 363 355 362 373 -1 8 -2 18
-3 23 0 6 -22 8 -48 5 -53 -6 -114 -41 -139 -79 -9 -14 -21 -25 -26 -25 -30 0
117 173 192 225 22 15 40 34 40 41 0 18 -31 18 -56 0 -10 -8 -28 -13 -39 -10
-24 6 -127 -46 -167 -84 -15 -14 -51 -61 -79 -104 -28 -43 -56 -78 -61 -78 -5
0 -1 14 9 30 21 37 153 203 194 245 16 17 29 36 29 42 0 14 -24 23 -61 23 -34
0 -38 15 -8 30 13 8 24 8 32 2 26 -22 84 -24 141 -6 31 10 56 21 56 25 0 4
-20 10 -44 13 -49 8 -108 52 -87 65 14 9 -2 27 -29 33 -8 2 -21 9 -28 16 -7 6
-36 12 -63 12 -44 0 -68 15 -36 24 6 2 31 9 54 15 38 10 41 14 32 30 -7 10
-25 23 -42 29 -20 8 -28 16 -24 27 4 9 1 15 -8 15 -7 0 -17 9 -20 20 -5 16
-12 19 -28 14 -50 -15 -52 -15 -32 1 19 16 19 17 2 30 -10 7 -27 11 -37 8 -24
-6 -27 12 -4 21 8 3 13 10 10 15 -6 9 -64 25 -83 22 -7 -1 -13 3 -13 10 0 8
-12 10 -39 5 -24 -4 -41 -2 -43 5 -2 7 -12 7 -30 0 -18 -7 -29 -7 -33 -1 -4 6
-18 7 -32 4 -16 -4 -28 -2 -34 7 -12 19 -11 29 2 29 6 0 16 6 24 13 18 18 78
10 71 -9 -5 -13 6 -19 29 -14 10 2 67 7 100 9 34 3 -2 16 -80 31 -38 7 -75 17
-81 22 -18 14 -95 -3 -118 -26 -12 -12 -25 -21 -31 -22 -23 -2 -52 -19 -84
-50 -19 -18 -45 -35 -59 -39 -31 -8 -65 20 -56 47 4 14 0 18 -21 18 -48 0 -25
32 40 54 76 27 96 38 87 53 -5 8 -21 7 -62 -4 -82 -23 -137 -26 -144 -7 -3 8
-10 12 -16 9 -5 -3 -10 1 -10 10 0 8 8 19 18 22 34 13 72 47 72 65 0 20 -15
24 -26 7 -3 -6 -19 -9 -34 -6 -43 9 -71 -2 -68 -27 2 -13 -3 -22 -16 -24 -13
-3 -16 0 -10 10 5 8 -2 7 -19 -5 -31 -20 -51 -22 -41 -4 5 8 2 7 -10 -2 -12
-10 -14 -17 -6 -25 15 -15 12 -23 -10 -29 -10 -3 -25 2 -32 10 -8 10 -23 13
-46 9 -67 -10 -109 39 -75 91 15 22 14 23 -11 23 -15 0 -44 -9 -66 -20 -44
-22 -86 -26 -92 -8 -7 21 -28 -3 -23 -25 4 -15 0 -25 -13 -32 -10 -5 -44 -23
-75 -40 -53 -27 -75 -55 -44 -55 7 0 21 -16 30 -35 16 -33 16 -35 -1 -35 -9 1
-28 7 -42 15 -33 19 -50 19 -50 0 0 -8 -5 -15 -11 -15 -7 0 -18 -8 -25 -17
-14 -18 -20 -15 -39 22 -3 6 -7 5 -11 -3 -3 -7 -24 -36 -47 -65 -32 -40 -42
-48 -45 -34 -4 21 28 72 87 139 31 35 58 53 102 69 36 13 76 37 97 59 21 20
56 46 79 59 22 13 46 34 51 46 10 22 10 23 -20 14 -18 -5 -36 -13 -42 -19 -5
-5 -23 -10 -39 -10 -28 0 -29 2 -24 33 4 27 2 33 -13 34 -10 1 -24 -5 -31 -13
-15 -18 -74 -20 -62 -1 10 16 11 57 1 57 -4 0 -21 -28 -38 -62 -58 -119 -69
-134 -85 -108 -3 6 -3 10 2 10 4 0 9 30 10 66 2 36 -1 63 -6 59 -5 -3 -11 0
-13 5 -2 6 -17 -12 -33 -40 -16 -27 -34 -50 -40 -50 -18 0 -35 23 -35 48 0 29
50 133 67 139 18 7 16 33 -3 33 -21 0 -54 -19 -54 -31 0 -21 -74 -119 -90
-119 -29 0 -35 61 -10 117 11 25 18 48 16 51 -10 10 -37 -9 -53 -36 -14 -25
-53 -52 -75 -52 -14 0 -9 100 7 130 9 17 20 41 25 55 l10 26 -35 -27 c-19 -14
-35 -32 -35 -39 0 -21 -60 -47 -76 -34 -26 21 -17 97 17 151 16 28 28 52 26
55 -9 9 -43 -20 -68 -55 -13 -20 -37 -49 -54 -64 -27 -25 -31 -26 -42 -11 -17
22 -16 82 2 113 36 63 -5 58 -49 -6 -13 -20 -36 -42 -51 -50 l-27 -14 5 68 c6
85 16 124 36 139 9 6 13 15 8 19 -4 4 -14 -1 -22 -12 -8 -10 -15 -15 -15 -10
0 4 -20 -19 -44 -51 -46 -63 -80 -83 -91 -55 -11 30 7 122 32 159 18 27 21 38
12 44 -20 12 -36 0 -74 -51 -41 -56 -44 -71 -12 -67 21 2 22 -1 19 -58 -2 -40
-12 -78 -30 -114 -27 -54 -77 -105 -92 -96 -5 3 -12 30 -15 59 -6 46 -3 61 19
106 14 29 36 61 49 72 l22 20 -22 -5 c-13 -3 -23 -2 -23 3 0 4 -9 10 -21 13
-19 5 -21 11 -17 74 2 37 10 78 16 90 7 12 12 31 12 43 0 37 -28 9 -64 -63
l-34 -67 24 0 c23 0 24 -3 24 -72 0 -57 -5 -79 -24 -112 -33 -56 -85 -101 -99
-87 -25 25 2 168 40 212 22 26 16 39 -17 33 -25 -5 -31 -3 -38 17 -7 18 -10
10 -15 -39 -4 -35 -13 -75 -22 -91 -16 -32 -89 -94 -99 -84 -3 3 -6 30 -6 59
0 59 30 147 62 182 22 22 58 30 58 12 0 -5 4 -10 9 -10 5 0 16 30 24 67 12 55
13 69 2 78 -7 5 -16 17 -19 25 -3 8 -4 5 -2 -7 8 -42 -74 -163 -110 -163 -18
0 -35 44 -36 93 -1 49 -10 53 -33 14 -25 -43 -56 -68 -77 -63 -13 3 -19 -5
-24 -33 -12 -68 -92 -197 -110 -178 -4 3 -7 44 -8 90 -1 70 2 88 18 105 24 28
17 47 -10 27 -12 -8 -25 -30 -28 -49 -8 -40 -60 -116 -80 -116 -17 0 -26 31
-26 96 0 28 -3 53 -6 57 -4 3 -23 -20 -44 -51 -20 -31 -44 -63 -53 -71 -16
-12 -17 -7 -17 68 0 50 6 96 15 118 8 20 13 39 10 42 -13 12 -39 -17 -50 -56
-16 -55 -45 -92 -72 -93 -17 0 -23 7 -29 35 -3 20 -4 49 0 65 4 20 1 30 -6 30
-7 0 -2 7 10 16 25 17 29 39 8 47 -10 4 -20 -12 -35 -51 -11 -31 -34 -73 -50
-92 -41 -47 -52 -30 -49 75 3 71 1 82 -18 97 -16 13 -21 29 -21 60 0 23 -5 44
-12 46 -6 2 -11 10 -11 18 0 28 -17 13 -28 -25 -15 -49 -15 -52 3 -45 10 4 18
-3 24 -19 5 -14 14 -28 19 -31 19 -11 -22 -145 -49 -162 -23 -14 -43 25 -45
86 -1 47 -6 64 -22 78 -11 10 -24 30 -27 45 -4 15 -10 27 -14 27 -3 0 -7 12
-8 26 0 14 -6 31 -12 37 -22 22 -11 -59 15 -112 24 -47 25 -57 15 -91 -14 -49
-14 -55 4 -40 12 10 16 8 25 -15 13 -34 13 -142 0 -150 -5 -3 -10 -15 -10 -26
0 -15 -5 -19 -19 -14 -11 3 -26 -1 -37 -12 -17 -17 -17 -15 -11 49 3 37 13 81
22 99 18 34 11 54 -9 26 -7 -9 -18 -17 -24 -17 -17 0 -35 80 -28 127 4 34 2
43 -12 47 -18 6 -42 49 -42 77 0 9 -6 22 -14 28 -12 10 -17 8 -25 -8 -16 -29
-13 -51 7 -51 42 0 63 -102 32 -159 -15 -30 -13 -46 4 -32 11 10 16 8 21 -8 3
-12 10 -21 15 -21 35 0 5 -120 -35 -138 -22 -10 -25 -9 -31 14 -4 14 -4 52 0
85 3 34 2 59 -4 59 -5 0 -17 16 -26 35 -16 35 -16 89 1 130 8 19 8 19 -12 3
-27 -25 -54 -4 -60 47 -5 45 -7 50 -23 40 -12 -7 -7 -29 21 -92 11 -23 19 -50
19 -60 0 -26 -39 -85 -53 -80 -19 6 -37 68 -32 108 4 31 1 38 -15 42 -11 3
-23 7 -26 9 -3 1 -7 -20 -8 -47 -5 -89 -49 -128 -68 -60 -10 35 -1 115 13 115
5 0 9 5 9 10 0 6 -6 7 -17 1 -10 -5 -30 -14 -45 -20 -16 -6 -28 -18 -28 -26 0
-9 -7 -31 -15 -51 -13 -31 -17 -34 -35 -24 -23 12 -27 54 -9 94 13 28 35 40
44 25 11 -17 25 1 25 32 0 16 7 46 15 66 23 54 19 57 -25 22 -27 -22 -42 -43
-46 -65 -12 -66 -45 -64 -57 3 -5 25 -1 39 19 62 18 22 25 42 26 76 1 54 14
67 39 37 9 -12 27 -22 38 -22 18 0 21 6 21 38 0 39 -23 72 -49 72 -6 0 -18
-14 -25 -32 l-14 -31 -7 32 c-5 22 -19 39 -46 56 -45 29 -52 30 -69 10 -18
-21 -32 -19 -25 5 10 31 -12 60 -44 60 -22 0 -38 12 -72 53 -24 29 -81 87
-126 128 -45 41 -125 124 -177 184 -52 61 -101 116 -108 123 -26 26 -94 65
-143 82 -27 10 -68 25 -90 33 -22 9 -52 18 -67 22 -16 3 -28 11 -28 18 0 14
-105 63 -128 60 -7 0 -11 1 -8 4 5 5 -51 48 -139 106 -27 18 -90 52 -140 75
l-90 42 50 -45 50 -46 -34 7 c-19 3 -66 22 -105 40 -48 23 -72 30 -75 22 -4
-13 29 -43 157 -144 82 -65 107 -97 55 -70 -16 8 -82 52 -148 98 -141 99 -185
125 -405 246 -228 124 -337 178 -422 207 -40 13 -111 40 -158 60 -80 33 -149
50 -85 20z m1375 -849 c59 -38 70 -50 76 -80 7 -38 24 -49 24 -16 0 27 19 25
53 -5 20 -18 26 -31 22 -45 -7 -21 -20 -26 -30 -10 -3 5 -11 7 -18 5 -7 -3
-46 12 -87 33 -67 34 -76 41 -91 82 -9 25 -20 53 -24 63 -11 25 -1 22 75 -27z
m-700 -476 c122 -14 220 -32 220 -41 0 -4 -8 -7 -17 -7 -51 3 -442 -14 -526
-23 -153 -16 -327 -44 -517 -84 -216 -45 -270 -54 -270 -44 0 4 14 12 31 18
17 6 28 14 25 19 -8 13 85 55 174 80 41 11 194 35 340 51 375 44 412 46 540
31z m1580 -80 c0 -5 -7 -10 -16 -10 -8 0 -12 5 -9 10 3 6 10 10 16 10 5 0 9
-4 9 -10z m230 -39 c0 -29 -11 -51 -24 -51 -7 0 -12 8 -11 18 5 44 35 73 35
33z m-165 -11 c3 -6 -1 -17 -9 -26 -12 -11 -20 -12 -36 -4 -33 17 -24 40 16
40 13 0 26 -5 29 -10z m80 -27 c16 -16 16 -17 -1 -30 -23 -17 -29 -16 -44 2
-10 12 -10 18 0 30 16 19 25 19 45 -2z m-575 -3 c0 -5 -2 -10 -4 -10 -3 0 -8
5 -11 10 -3 6 -1 10 4 10 6 0 11 -4 11 -10z m744 -6 c36 -14 5 -124 -34 -124
-15 0 -20 7 -20 29 0 16 -3 36 -6 44 -3 9 4 25 15 36 23 23 23 23 45 15z
m-486 -13 c9 -5 35 -16 57 -26 22 -10 34 -20 28 -22 -12 -4 -123 44 -123 53 0
7 20 4 38 -5z m132 -67 c0 -14 -3 -14 -15 -4 -8 7 -15 14 -15 16 0 2 7 4 15 4
8 0 15 -7 15 -16z m125 -4 c8 -13 -12 -40 -29 -40 -6 0 -18 5 -26 10 -13 8
-12 11 5 24 24 18 41 20 50 6z m125 -28 c0 -21 -18 -42 -36 -42 -18 0 -26 30
-13 46 17 20 49 18 49 -4z m-820 -56 c0 -3 -4 -8 -10 -11 -5 -3 -10 -1 -10 4
0 6 5 11 10 11 6 0 10 -2 10 -4z m95 -26 c3 -5 -1 -10 -10 -10 -9 0 -13 5 -10
10 3 6 8 10 10 10 2 0 7 -4 10 -10z m435 -3 c24 -8 36 -19 38 -34 3 -18 -3
-23 -32 -29 -20 -3 -36 -11 -36 -16 0 -12 -61 -4 -183 24 -49 11 -95 21 -102
22 -8 1 -18 6 -22 10 -10 9 95 -3 122 -14 25 -11 115 -18 115 -8 0 3 -5 8 -12
10 -6 2 -13 14 -15 26 -3 20 1 22 45 21 26 0 63 -5 82 -12z m-367 -7 c16 0 18
-3 9 -9 -17 -10 -62 -2 -62 11 0 6 7 7 16 4 9 -3 25 -6 37 -6z m587 -40 c0
-11 -7 -20 -15 -20 -8 0 -15 9 -15 20 0 11 7 20 15 20 8 0 15 -9 15 -20z m145
-11 c7 -22 -12 -79 -26 -79 -5 0 -16 11 -25 25 -15 23 -15 27 0 50 20 30 42
32 51 4z m-314 -48 c-15 -26 -41 -27 -41 -1 0 21 31 43 43 30 5 -4 4 -17 -2
-29z m105 -43 c3 -5 -1 -19 -10 -32 l-15 -24 -41 20 c-32 16 -38 23 -30 34 19
22 83 24 96 2z m-173 -24 c26 -8 40 -40 27 -64 -15 -28 -85 -27 -150 2 -81 35
-61 65 44 67 34 0 69 -2 79 -5z m-903 -13 c0 -12 -48 -23 -63 -14 -7 5 1 10
23 14 19 4 36 7 38 8 1 0 2 -3 2 -8z m80 -12 c0 -5 -15 -7 -32 -5 -45 6 -46 7
-18 15 28 8 50 4 50 -10z m64 12 c3 -4 3 -11 0 -14 -8 -8 -34 3 -34 14 0 11
27 12 34 0z m1196 -16 c11 -29 -5 -75 -27 -75 -22 0 -36 42 -24 73 13 34 38
35 51 2z m131 -14 c7 -36 -5 -96 -23 -107 -13 -8 -47 34 -48 59 0 11 7 34 16
53 21 43 46 41 55 -5z m-266 8 c-4 -5 -13 -9 -22 -9 -13 0 -13 3 -3 15 13 15
35 11 25 -6z m-1295 2 c0 -11 -69 -20 -76 -10 -5 8 19 16 54 18 12 0 22 -3 22
-8z m1678 -13 c29 -29 2 -118 -35 -118 -13 0 -23 3 -24 8 0 4 -2 16 -5 27 -6
28 3 61 22 79 19 19 26 20 42 4z m133 -25 c14 -37 3 -106 -22 -135 l-19 -23
-19 22 c-14 17 -17 31 -11 66 7 47 33 97 50 97 6 0 15 -12 21 -27z m-670 -41
c36 -30 20 -51 -38 -47 -26 1 -56 6 -66 10 -17 7 -17 9 5 31 28 28 68 30 99 6z
m1053 -23 c10 -43 -14 -108 -44 -116 -11 -3 -20 -12 -20 -19 0 -8 -7 -14 -15
-14 -30 0 -6 130 31 171 23 26 37 20 48 -22z m765 12 c20 -37 -37 -195 -74
-208 -6 -2 -19 12 -29 31 -23 43 -17 85 19 132 14 18 25 37 25 41 0 32 43 35
59 4z m-5305 4 c-4 -8 -11 -12 -16 -9 -6 4 -5 10 3 15 19 12 19 11 13 -6z
m4668 -71 c0 -31 -11 -67 -34 -112 -35 -70 -59 -91 -57 -50 1 13 -2 43 -6 68
-6 42 -4 49 35 103 48 67 64 65 62 -9z m-1368 46 c19 -7 26 -17 26 -37 0 -16
-4 -33 -8 -40 -12 -19 -55 -25 -102 -13 -25 7 -87 19 -137 28 -51 9 -93 19
-93 23 0 10 39 19 90 20 25 0 63 6 85 14 49 16 105 18 139 5z m377 -9 c-13 -8
-13 -12 0 -28 13 -16 13 -17 -3 -4 -10 7 -18 20 -18 27 0 8 8 14 18 14 14 0
14 -2 3 -9z m144 -21 c17 -19 17 -21 0 -40 -18 -20 -18 -20 -37 0 -15 16 -16
23 -6 40 16 25 20 25 43 0z m960 -30 c10 -18 13 -40 9 -53 -5 -17 -52 -125
-58 -134 -1 -1 -11 0 -23 3 -39 11 -26 115 22 179 15 19 29 35 31 35 2 0 11
-14 19 -30z m-846 1 c22 -14 5 -41 -23 -39 -13 1 -23 5 -22 8 2 3 6 13 9 23 7
19 15 21 36 8z m977 -56 c10 -71 -28 -181 -78 -223 -24 -20 -35 113 -13 164
18 43 62 104 75 104 5 0 12 -20 16 -45z m-846 16 c0 -7 -43 -31 -55 -31 -15 0
-1 27 18 36 23 11 37 9 37 -5z m-670 -36 c10 -18 11 -28 3 -36 -27 -27 -78 16
-54 45 19 23 36 20 51 -9z m1630 -3 c0 -10 5 -23 11 -29 27 -27 -43 -213 -80
-213 -18 0 -33 70 -26 118 8 55 18 77 53 115 30 31 42 34 42 9z m-1725 -28
c32 -21 33 -52 3 -58 -86 -19 -140 -26 -188 -27 -30 -1 -59 -5 -65 -9 -18 -13
-109 -42 -149 -47 -21 -3 -53 -14 -70 -24 -28 -16 -162 -69 -176 -69 -11 0 67
43 95 53 17 5 40 19 53 31 18 16 25 18 31 7 7 -10 9 -9 14 3 4 9 13 16 21 16
7 0 17 7 20 16 3 8 11 12 16 9 6 -4 16 -2 23 3 7 5 32 13 57 17 25 4 67 18 95
30 69 31 148 58 188 64 4 0 19 -6 32 -15z m1862 -51 c7 -62 -17 -140 -53 -174
-30 -28 -40 -19 -50 50 -7 47 6 84 53 154 31 45 41 38 50 -30z m-2932 32 c-60
-24 -95 -31 -81 -17 11 11 98 40 121 41 11 0 -7 -11 -40 -24z m1920 15 c-3 -5
-11 -10 -16 -10 -6 0 -7 5 -4 10 3 6 11 10 16 10 6 0 7 -4 4 -10z m1725 -87
c0 -34 -8 -74 -19 -98 -19 -42 -72 -105 -89 -105 -5 0 -13 20 -17 45 -10 67
16 136 68 180 22 19 44 35 49 35 4 0 8 -26 8 -57z m-582 13 c18 -39 0 -119
-39 -176 -19 -28 -38 -49 -44 -47 -15 5 -27 78 -20 124 6 44 56 123 78 123 8
0 19 -11 25 -24z m148 -62 c9 -75 -8 -123 -64 -179 -25 -25 -47 -44 -49 -41
-12 11 -3 149 12 179 18 38 69 97 84 97 5 0 13 -25 17 -56z m-2066 26 c0 -5
-5 -10 -11 -10 -5 0 -7 5 -4 10 3 6 8 10 11 10 2 0 4 -4 4 -10z m2616 -58 c-2
-62 -34 -137 -72 -172 l-22 -21 -11 32 c-24 68 0 155 54 197 45 36 54 29 51
-36z m-1360 26 c-3 -13 -6 -30 -7 -38 0 -8 -4 -4 -8 10 -9 28 -4 50 11 50 6 0
8 -10 4 -22z m952 -61 c2 -52 -2 -75 -19 -109 -25 -50 -57 -88 -75 -88 -19 0
-26 89 -11 138 14 47 76 133 92 128 6 -1 11 -32 13 -69z m-824 9 c-3 -9 -10
-13 -16 -10 -5 3 -4 12 3 20 15 18 22 13 13 -10z m-1497 -10 c-2 -6 -14 -16
-28 -23 -13 -6 -48 -23 -77 -38 -29 -15 -56 -25 -58 -22 -3 3 -30 -1 -60 -8
-30 -7 -56 -9 -59 -5 -2 4 46 32 107 61 85 42 119 54 145 51 19 -3 32 -9 30
-16z m2846 -61 c-7 -62 -67 -175 -94 -175 -4 0 -10 26 -14 58 -8 72 12 129 63
173 33 29 36 30 43 13 4 -11 5 -41 2 -69z m-3978 66 c-6 -6 -64 -31 -130 -56
-245 -95 -373 -145 -505 -200 -74 -30 -137 -55 -139 -55 -2 0 4 9 13 19 30 33
203 131 315 178 129 55 170 68 308 98 121 26 152 30 138 16z m2765 -23 c0 -4
-9 -8 -20 -8 -11 0 -20 4 -20 9 0 6 9 9 20 8 11 -1 20 -5 20 -9z m825 -30 c3
-24 4 -52 2 -63 -15 -71 -23 -88 -54 -125 -19 -22 -38 -40 -43 -40 -5 0 -12
29 -15 65 -9 81 11 143 58 180 18 14 35 25 39 25 4 0 10 -19 13 -42z m-706 16
c-9 -11 -10 -17 -1 -23 15 -9 3 -51 -15 -51 -10 0 -12 -6 -7 -22 6 -23 6 -23
-18 2 -23 23 -24 27 -11 48 19 31 46 60 57 61 5 1 3 -6 -5 -15z m1177 -29 c-3
-9 0 -15 8 -15 20 0 25 -67 9 -122 -15 -51 -56 -108 -79 -108 -47 0 -30 130
26 194 16 18 27 36 24 39 -3 3 -3 10 1 16 9 16 18 13 11 -4z m-350 -71 c12
-81 -48 -217 -85 -194 -23 14 -27 120 -6 161 17 34 61 79 76 79 4 0 11 -21 15
-46z m-2896 16 c-8 -5 -24 -9 -35 -9 -16 1 -16 2 5 9 35 11 48 11 30 0z m2338
-20 c1 -16 -2 -30 -6 -30 -5 0 -7 -11 -4 -25 2 -15 -2 -33 -10 -43 -8 -9 -18
-25 -21 -34 -8 -22 -27 -24 -27 -3 0 8 4 15 10 15 5 0 7 7 4 15 -6 14 -8 13
-20 -2 -12 -16 -13 -13 -12 27 1 37 7 51 35 78 19 17 38 32 42 32 4 0 8 -13 9
-30z m-2031 -6 c5 -14 -105 -87 -122 -80 -7 2 -23 -6 -36 -20 -12 -13 -28 -24
-36 -24 -27 0 -11 26 35 57 26 18 60 44 77 58 29 26 75 31 82 9z m1707 -5 c-3
-5 -10 -7 -15 -3 -5 3 -7 10 -3 15 3 5 10 7 15 3 5 -3 7 -10 3 -15z m166 12
c0 -5 -7 -11 -14 -14 -10 -4 -13 -1 -9 9 6 15 23 19 23 5z m-2260 -10 c0 -5
-21 -20 -47 -33 -27 -14 -84 -43 -128 -65 -44 -23 -110 -53 -147 -67 -147 -55
-430 -128 -444 -114 -2 3 26 13 63 23 147 39 331 112 588 231 17 7 48 18 70
23 22 5 41 9 43 10 1 1 2 -3 2 -8z m2567 -65 c-6 -66 -29 -136 -45 -136 -4 0
-16 6 -26 13 -15 11 -16 18 -7 34 9 18 8 20 -9 16 -11 -3 -20 -2 -20 1 0 29
81 136 103 136 6 0 7 -26 4 -64z m521 -7 c1 -59 -24 -132 -42 -122 -6 4 -6 1
2 -9 10 -13 10 -17 -3 -22 -19 -7 -47 3 -39 15 3 5 0 9 -5 9 -17 0 -12 51 8
96 15 32 62 84 76 84 2 0 3 -23 3 -51z m365 9 c-2 -24 -7 -54 -11 -68 -9 -39
-9 -54 2 -69 8 -10 2 -20 -24 -42 -19 -16 -39 -29 -43 -29 -17 0 -39 73 -32
108 11 57 74 142 106 142 4 0 5 -19 2 -42z m-749 -51 c4 -24 2 -56 -3 -70 -6
-15 -8 -27 -4 -27 4 0 -2 -7 -13 -16 -10 -8 -13 -13 -6 -9 6 3 12 2 12 -3 0
-5 -11 -14 -25 -20 -30 -14 -35 -15 -34 -4 4 22 -2 42 -11 37 -17 -10 -11 58
7 85 23 35 55 70 64 70 4 0 10 -20 13 -43z m-2768 14 c-10 -16 -168 -97 -266
-136 -176 -70 -508 -185 -534 -185 -22 0 21 20 99 46 99 32 126 47 70 40 -58
-8 -24 5 140 54 162 48 322 108 415 156 68 34 85 40 76 25z m3948 -80 c-20
-34 -45 -66 -55 -71 -16 -9 -18 -6 -14 40 3 47 6 52 52 84 61 42 65 28 17 -53z
m-3469 69 c3 -5 1 -10 -4 -10 -6 0 -11 5 -11 10 0 6 2 10 4 10 3 0 8 -4 11
-10z m2783 -48 c4 -55 -18 -134 -45 -158 -12 -12 -21 -24 -18 -28 3 -3 -3 0
-12 8 -34 31 -15 142 35 199 24 27 37 20 40 -21z m342 -44 c-7 -32 -22 -70
-32 -83 -16 -21 -22 -23 -39 -12 -11 7 -19 23 -19 39 0 43 39 114 69 124 34
13 36 5 21 -68z m-713 17 c-1 -30 -5 -55 -9 -55 -4 0 -8 -12 -8 -27 l-1 -28
-19 24 -20 23 0 -33 c0 -26 -3 -30 -10 -19 -13 20 -13 70 0 70 5 0 7 7 4 15
-4 8 1 17 10 21 9 3 16 11 16 17 0 9 29 47 36 47 1 0 2 -25 1 -55z m-2797 1
c-19 -19 -124 -77 -225 -125 -125 -60 -316 -134 -490 -191 -272 -89 -283 -93
-255 -100 19 -5 -10 -19 -130 -64 -193 -73 -362 -148 -505 -223 -61 -32 -135
-69 -165 -83 -30 -13 -62 -30 -70 -36 -8 -7 -28 -16 -45 -20 -28 -7 -29 -6
-16 10 8 9 35 29 60 43 73 41 112 73 105 85 -4 6 -2 8 4 4 6 -3 16 7 24 24 7
16 18 30 24 30 5 0 25 14 42 31 18 18 45 39 61 48 16 9 47 26 69 38 21 12 79
32 128 43 49 12 159 47 244 77 85 30 232 79 325 109 94 31 226 74 295 96 156
50 284 101 420 167 114 55 121 58 100 37z m3273 -28 c-4 -7 -9 -28 -10 -46 -2
-41 -18 -61 -44 -59 -26 2 -24 15 6 29 26 12 32 24 14 30 -16 5 7 58 26 58 11
0 13 -4 8 -12z m322 -95 c-3 -18 -14 -37 -25 -43 -20 -11 -50 -4 -50 12 0 13
29 67 54 102 l21 28 3 -33 c2 -18 1 -48 -3 -66z m515 17 c8 -5 12 -11 10 -14
-3 -2 -14 2 -24 10 -22 15 -10 19 14 4z m44 -55 c-4 -8 -10 -15 -15 -15 -5 0
-9 7 -9 15 0 8 7 15 15 15 9 0 12 -6 9 -15z m343 -1 c31 -14 52 -34 36 -34 -4
0 -24 -14 -43 -30 -19 -16 -38 -30 -42 -30 -4 0 0 -12 8 -27 7 -16 14 -42 14
-59 0 -33 29 -67 68 -79 16 -4 22 -14 22 -34 0 -16 -10 -43 -22 -62 -28 -41
-43 -72 -60 -122 -9 -29 -17 -37 -30 -34 -20 6 -25 -8 -7 -19 6 -3 9 -15 6
-25 -3 -10 0 -20 6 -22 6 -2 11 -20 11 -40 0 -29 -7 -43 -34 -67 -21 -19 -40
-28 -51 -25 -22 7 -39 -22 -29 -50 7 -19 7 -19 14 2 6 19 10 21 27 10 12 -7
17 -18 13 -29 -4 -13 2 -21 18 -27 20 -9 20 -10 4 -10 -16 -1 -17 -4 -8 -13 7
-7 12 -24 12 -39 0 -23 -3 -26 -21 -22 -18 5 -20 3 -11 -13 9 -16 7 -20 -9
-21 -11 -1 -25 7 -32 18 -6 10 -22 19 -35 19 -13 0 -20 4 -17 10 4 6 11 8 16
5 5 -4 9 8 9 24 0 20 5 31 14 31 8 0 16 7 19 15 5 11 1 12 -17 5 -13 -5 -27
-6 -30 -3 -3 4 -12 -2 -20 -12 -16 -23 -46 -13 -46 15 0 11 4 20 9 20 11 0 31
55 31 85 0 12 9 40 20 63 23 47 25 63 8 60 -9 -2 -12 7 -11 26 1 15 -4 35 -12
42 -18 18 -26 18 -19 -1 4 -8 1 -21 -5 -29 -6 -7 -8 -16 -4 -19 3 -4 2 -7 -3
-7 -6 0 -15 5 -22 12 -8 8 -15 8 -26 -1 -39 -32 -49 90 -13 154 37 66 107 72
107 9 0 -33 13 -30 26 5 9 22 20 30 50 36 24 5 32 10 21 12 -33 8 -69 50 -62
72 3 12 2 21 -3 21 -15 0 -12 61 5 86 8 13 24 26 36 30 20 6 20 7 -3 24 -20
15 -22 21 -12 33 7 8 14 29 15 46 2 30 4 31 42 30 22 -1 54 -8 72 -15z m-5487
-39 c0 -5 -132 -45 -150 -45 -26 0 1 13 62 30 68 19 88 23 88 15z m5015 -22
c19 -25 8 -45 -17 -32 -14 8 -17 14 -9 23 6 7 8 16 4 19 -3 4 -3 7 2 7 4 0 13
-8 20 -17z m868 -35 c8 -12 7 -21 -2 -32 -16 -19 -31 -20 -54 -3 -16 11 -16
14 -1 35 18 26 41 26 57 0z m-1128 -28 c-3 -5 -2 -10 3 -10 6 0 12 -6 15 -13
7 -19 -36 -16 -44 3 -4 8 -1 18 5 22 16 11 28 10 21 -2z m839 1 c7 -10 -18
-34 -27 -25 -7 8 3 34 13 34 5 0 11 -4 14 -9z m551 -10 c3 -5 1 -12 -5 -16 -5
-3 -10 1 -10 9 0 18 6 21 15 7z m-1038 -28 c-9 -9 -19 -14 -23 -11 -10 10 6
28 24 28 15 0 15 -1 -1 -17z m123 -30 c0 -34 -40 -102 -77 -129 -38 -28 -113
-40 -113 -18 0 65 104 174 168 174 17 0 22 -6 22 -27z m800 7 c0 -5 -6 -7 -14
-4 -8 3 -24 1 -35 -5 -12 -7 -22 -7 -25 -2 -4 5 0 12 6 14 23 9 68 7 68 -3z
m-1440 -50 c0 -22 -4 -28 -15 -24 -16 7 -18 14 -9 38 10 26 24 18 24 -14z
m-3965 -20 c-11 -5 -27 -9 -35 -9 -9 0 -8 4 5 9 11 5 27 9 35 9 9 0 8 -4 -5
-9z m-218 -6 c-3 -3 -12 -4 -19 -1 -8 3 -5 6 6 6 11 1 17 -2 13 -5z m5719 -6
c5 -7 2 -9 -9 -5 -9 3 -17 1 -19 -5 -5 -13 -28 -2 -28 13 0 13 47 11 56 -3z
m-5757 -2 c-2 -2 -22 -6 -44 -9 -28 -5 -34 -4 -20 3 19 8 73 14 64 6z m191 -6
c-20 -13 -33 -13 -25 0 3 6 14 10 23 10 15 0 15 -2 2 -10z m5346 -20 c57 -25
81 -44 102 -85 14 -27 34 -95 27 -95 -1 0 -14 18 -29 40 -47 72 -119 117 -138
87 -5 -9 -15 -8 -42 1 -36 13 -56 10 -56 -10 0 -5 7 -8 15 -4 8 3 15 1 15 -4
0 -18 -39 -10 -44 8 -7 20 -10 21 -86 23 -34 1 -56 -4 -69 -15 -9 -9 -21 -16
-26 -16 -13 0 16 29 53 52 83 51 189 58 278 18z m-1230 -5 c1 -16 -3 -25 -13
-25 -10 0 -12 6 -8 21 5 15 4 19 -4 15 -6 -4 -11 -2 -11 3 0 6 8 11 18 11 11
0 17 -8 18 -25z m224 15 c0 -5 -2 -10 -4 -10 -3 0 -8 5 -11 10 -3 6 -1 10 4
10 6 0 11 -4 11 -10z m400 1 c0 -5 -7 -11 -15 -15 -15 -5 -20 5 -8 17 9 10 23
9 23 -2z m-4815 -16 c-22 -8 -44 -14 -50 -14 -18 1 49 28 70 28 11 0 2 -6 -20
-14z m3962 -17 c-3 -8 -6 -5 -6 6 -1 11 2 17 5 13 3 -3 4 -12 1 -19z m-4182 1
c-22 -6 -67 -18 -100 -29 -33 -11 -109 -33 -170 -51 -60 -17 -114 -34 -120
-38 -5 -5 -46 -21 -90 -36 -44 -15 -84 -33 -90 -39 -5 -6 -35 -22 -65 -36
-311 -139 -533 -310 -777 -595 -69 -81 -92 -114 -153 -215 -38 -63 -79 -110
-94 -110 -7 0 -8 3 -1 8 12 9 19 42 8 42 -10 -1 -60 -77 -92 -142 -14 -26 -30
-48 -38 -48 -17 0 -17 2 11 52 13 24 42 79 66 123 24 44 51 92 61 107 11 14
19 30 19 35 0 6 9 18 20 28 11 10 34 40 51 67 18 27 46 66 63 86 44 52 248
252 256 252 4 0 57 33 119 74 120 80 207 130 371 214 58 30 125 64 150 77 111
57 522 184 595 183 l40 0 -40 -9z m85 -24 c-195 -59 -512 -146 -516 -142 -7 7
216 77 392 121 184 47 243 57 124 21z m4040 -27 c0 -38 -16 -43 -28 -10 -12
34 4 75 19 51 5 -8 9 -26 9 -41z m495 42 c-3 -5 -13 -10 -21 -10 -8 0 -12 5
-9 10 3 6 13 10 21 10 8 0 12 -4 9 -10z m-15 -45 c0 -23 -29 -49 -47 -43 -4 2
-19 -8 -32 -21 -29 -29 -39 -15 -20 27 11 26 59 60 87 61 6 1 12 -10 12 -24z
m970 -11 c0 -2 -7 -4 -15 -4 -8 0 -15 4 -15 10 0 5 7 7 15 4 8 -4 15 -8 15
-10z m-2623 -16 c11 -13 30 -30 41 -38 64 -48 166 -147 241 -235 47 -55 108
-122 136 -149 27 -26 41 -43 30 -36 -26 17 -485 480 -476 480 4 0 17 -10 28
-22z m213 -62 c0 -5 -16 8 -35 30 -19 21 -34 44 -34 49 -1 6 15 -8 34 -30 19
-22 34 -44 35 -49z m2824 78 c9 -3 16 -12 16 -20 0 -11 -5 -11 -25 -2 -19 8
-31 8 -51 -1 -37 -16 -42 -6 -7 13 31 17 44 19 67 10z m-1939 -45 c19 -35 10
-54 -11 -25 -13 19 -20 56 -9 56 2 0 12 -14 20 -31z m1422 5 c-3 -3 -12 -4
-19 -1 -8 3 -5 6 6 6 11 1 17 -2 13 -5z m43 -14 c8 -5 11 -10 5 -10 -5 0 -17
5 -25 10 -8 5 -10 10 -5 10 6 0 17 -5 25 -10z m-1040 -19 c0 -5 3 -17 7 -27 4
-11 3 -15 -4 -11 -14 9 -24 47 -12 47 5 0 9 -4 9 -9z m1465 -1 c-3 -5 -10 -10
-16 -10 -5 0 -9 5 -9 10 0 6 7 10 16 10 8 0 12 -4 9 -10z m-3071 -56 c52 -49
42 -51 -14 -3 -25 21 -40 39 -35 39 6 0 28 -16 49 -36z m-208 -2 c-4 -3 -14 2
-24 12 -16 18 -16 18 6 6 13 -6 21 -14 18 -18z m1794 6 c0 -16 -3 -19 -11 -11
-6 6 -8 16 -5 22 11 17 16 13 16 -11z m-1172 -74 c15 -16 49 -59 76 -95 l48
-64 -56 60 c-31 33 -74 87 -96 120 -23 33 -32 49 -20 35 12 -14 33 -39 48 -56z
m-3733 57 c-11 -4 -33 -11 -50 -14 l-30 -6 30 14 c17 8 39 14 50 14 l20 0 -20
-8z m3185 -35 c7 -9 9 -16 6 -16 -13 0 -56 32 -56 42 0 11 32 -6 50 -26z
m1720 10 c0 -3 -4 -8 -10 -11 -5 -3 -10 -1 -10 4 0 6 5 11 10 11 6 0 10 -2 10
-4z m-1518 -28 c-7 -7 -12 -8 -12 -2 0 14 12 26 19 19 2 -3 -1 -11 -7 -17z
m2088 -6 c0 -18 -20 -32 -71 -51 -35 -13 -72 10 -51 31 16 16 69 36 100 37 15
1 22 -5 22 -17z m-2030 -28 c0 -8 4 -13 9 -11 5 1 57 -39 117 -89 60 -50 143
-115 184 -144 41 -29 83 -61 92 -71 10 -10 26 -22 35 -28 10 -5 15 -12 11 -16
-3 -4 -19 2 -35 11 -61 39 -210 150 -254 188 -70 63 -160 140 -181 154 -10 7
-16 17 -13 22 8 13 35 0 35 -16z m2992 -19 c14 -31 5 -43 -48 -61 -25 -9 -44
-10 -62 -3 -23 9 -23 22 -1 25 22 3 23 5 10 13 -21 13 -3 32 25 25 18 -5 24
-2 24 10 0 26 39 19 52 -9z m-1016 -43 c6 -4 13 -19 16 -34 4 -21 0 -29 -21
-38 -21 -10 -27 -9 -38 6 -17 23 -16 34 4 56 18 20 23 21 39 10z m654 -32 c-6
-11 -8 -25 -4 -31 10 -17 -45 -59 -78 -59 -31 0 -36 11 -13 30 10 8 12 22 8
43 l-6 32 23 -20 22 -20 17 22 c21 29 46 31 31 3z m-410 2 c0 -5 9 -19 20 -32
11 -13 20 -29 20 -36 0 -18 -21 -29 -30 -15 -4 7 -11 11 -16 10 -17 -4 -44 13
-44 27 0 21 23 54 37 54 7 0 13 -4 13 -8z m655 -109 c-5 -31 -9 -34 -31 -30
-13 2 -24 0 -24 -6 0 -5 -7 -4 -15 3 -20 16 -19 22 5 50 11 13 20 29 20 36 0
21 24 22 38 2 9 -13 12 -31 7 -55z m-4533 -25 c-16 -27 -17 -28 -20 -8 -5 31
5 51 23 44 13 -5 13 -10 -3 -36z m-2532 28 c0 -2 -8 -10 -17 -17 -16 -13 -17
-12 -4 4 13 16 21 21 21 13z m4785 -114 c6 -4 21 -20 35 -35 18 -21 20 -26 7
-21 -9 3 -17 10 -17 15 0 5 -11 14 -25 19 -14 5 -25 14 -25 20 0 12 11 13 25
2z m-2296 -104 c-54 -104 -74 -117 -44 -29 13 41 76 131 91 131 3 0 -19 -46
-47 -102z m2259 59 c26 -28 20 -36 -26 -35 -30 1 -32 3 -32 40 0 34 2 38 18
29 9 -5 27 -20 40 -34z m-2056 -59 c-11 -24 -23 -53 -26 -65 -10 -33 -28 -28
-20 5 10 37 34 94 47 111 20 24 19 -6 -1 -51z m290 -15 c-5 -10 -12 -35 -16
-55 -6 -32 -11 -38 -31 -38 -29 0 -30 2 -9 43 19 38 44 67 56 67 5 0 5 -8 0
-17z m2628 3 c0 -17 -14 -29 -23 -20 -8 8 3 34 14 34 5 0 9 -6 9 -14z m-3087
-83 c-11 -30 -94 -172 -104 -179 -20 -12 -20 5 -1 33 11 15 39 58 62 96 44 68
54 81 43 50z m2308 -27 c24 -21 26 -26 14 -36 -8 -7 -35 -15 -60 -18 -24 -2
-42 -8 -39 -13 3 -5 -6 -9 -20 -9 -28 0 -34 14 -13 27 8 4 24 23 37 41 28 38
43 40 81 8z m794 14 c3 -5 1 -10 -4 -10 -6 0 -11 5 -11 10 0 6 2 10 4 10 3 0
8 -4 11 -10z m1145 -35 c0 -8 -2 -15 -4 -15 -2 0 -6 7 -10 15 -3 8 -1 15 4 15
6 0 10 -7 10 -15z m-3980 -44 c0 -18 -35 -71 -47 -71 -18 0 -16 9 10 47 22 32
37 42 37 24z m158 -31 c0 -32 -6 -44 -28 -60 -20 -14 -29 -32 -34 -62 -4 -24
-27 -103 -51 -176 -25 -73 -45 -136 -44 -140 0 -4 11 16 25 43 44 90 57 110
62 97 12 -37 -87 -330 -172 -507 -85 -175 -239 -403 -364 -537 -56 -60 -115
-128 -133 -153 -18 -25 -34 -43 -36 -41 -2 2 24 56 57 121 33 65 58 120 56
123 -3 2 -17 -9 -31 -24 l-26 -29 6 64 c5 55 4 63 -8 53 -15 -12 -21 -25 -87
-187 -64 -155 -101 -224 -137 -256 -19 -16 -38 -29 -44 -29 -6 0 -34 -25 -63
-55 -28 -30 -58 -55 -65 -55 -13 0 2 30 103 205 25 44 67 132 91 195 45 115
59 142 172 340 117 207 223 407 283 540 96 210 176 357 188 346 12 -13 -162
-422 -280 -661 -65 -130 -113 -245 -102 -245 1 0 28 46 60 103 31 56 78 140
104 187 27 47 107 200 178 340 71 140 146 284 166 318 20 35 34 68 31 73 -3 4
3 26 14 48 19 36 45 51 103 60 4 1 6 -17 6 -39z m722 -22 c11 -7 8 -8 -10 -4
-14 3 -31 6 -37 6 -7 0 -13 5 -13 11 0 11 33 4 60 -13z m2556 -6 c13 6 31 7
41 2 10 -4 23 -8 28 -9 6 0 32 -14 58 -32 l48 -31 -43 5 c-56 7 -161 42 -170
56 -12 19 -8 34 4 16 9 -13 16 -15 34 -7z m-2511 -10 c-3 -3 -11 0 -18 7 -9
10 -8 11 6 5 10 -3 15 -9 12 -12z m2215 8 c0 -5 -2 -10 -4 -10 -3 0 -8 5 -11
10 -3 6 -1 10 4 10 6 0 11 -4 11 -10z m235 -1 c11 -17 -1 -21 -15 -4 -8 9 -8
15 -2 15 6 0 14 -5 17 -11z m-175 -55 c0 -2 -9 -4 -20 -4 -11 0 -20 4 -20 9 0
5 9 7 20 4 11 -3 20 -7 20 -9z m-245 -24 c-3 -5 -10 -10 -16 -10 -5 0 -9 5 -9
10 0 6 7 10 16 10 8 0 12 -4 9 -10z m-2500 -262 c-1 -73 -8 -159 -14 -191 -31
-151 -155 -443 -250 -587 -61 -94 -160 -219 -280 -355 -123 -140 -371 -395
-383 -395 -19 0 -3 31 60 112 37 48 101 126 142 173 141 161 320 433 431 653
63 125 135 323 218 599 23 74 35 101 45 97 7 -3 16 2 19 10 4 9 8 16 11 16 2
0 2 -60 1 -132z m-3843 76 c-11 -23 -18 -31 -20 -21 -4 19 15 57 28 57 5 0 2
-16 -8 -36z m3662 -18 c-2 -12 -7 -37 -10 -56 -42 -254 -120 -462 -283 -752
-108 -193 -265 -428 -278 -415 -6 6 76 179 101 212 26 34 138 222 147 245 3 8
18 42 33 75 48 102 126 303 183 470 69 206 95 268 104 253 4 -6 5 -21 3 -32z
m-3710 -59 c-6 -17 -33 -31 -43 -22 -3 4 5 15 19 25 28 21 33 20 24 -3z m-18
-74 c-20 -26 -40 -54 -46 -60 -6 -7 -8 -13 -5 -13 4 0 -1 -7 -10 -16 -9 -9
-19 -13 -23 -10 -3 4 -2 10 3 14 6 4 17 21 25 37 15 32 81 107 88 101 2 -3
-12 -26 -32 -53z m-60 -9 c-4 -9 -9 -15 -11 -12 -3 3 -3 13 1 22 4 9 9 15 11
12 3 -3 3 -13 -1 -22z m-212 -193 c3 -5 -1 -11 -9 -14 -9 -4 -12 -1 -8 9 6 16
10 17 17 5z m3681 -218 c-29 -77 -102 -219 -174 -335 -36 -60 -72 -120 -79
-133 -7 -13 -35 -47 -62 -75 -67 -69 -144 -181 -222 -320 -84 -151 -91 -160
-105 -160 -7 0 -29 -15 -50 -32 -44 -40 -48 -50 60 186 79 173 85 183 171 275
167 181 282 336 411 554 32 53 60 95 63 92 3 -2 -3 -26 -13 -52z m369 -165
c-43 -142 -203 -384 -390 -590 -129 -142 -177 -168 -85 -46 27 36 56 80 64 99
8 19 28 47 43 63 15 16 43 52 63 80 19 28 59 80 89 115 30 36 59 75 65 88 5
13 14 23 18 23 4 0 25 28 45 63 21 34 44 68 51 75 7 8 18 22 23 33 14 26 23
24 14 -3z m-649 -465 c-73 -148 -143 -301 -154 -340 -12 -40 -26 -73 -31 -73
-28 0 7 160 59 274 35 78 38 95 14 75 -15 -13 -15 -12 -5 7 6 11 18 27 27 34
13 11 15 10 9 -6 -4 -11 -3 -16 2 -11 5 5 9 25 9 45 0 25 5 36 14 34 7 -1 15
7 18 18 3 13 11 19 19 16 9 -4 37 29 79 94 36 55 67 100 69 100 2 0 -56 -120
-129 -267z m848 165 c-17 -29 -41 -70 -54 -90 -13 -20 -35 -56 -49 -79 -31
-52 -147 -175 -157 -166 -3 4 5 20 18 35 61 67 187 250 229 333 15 28 25 38
32 31 7 -7 1 -27 -19 -64z m21 -160 c-10 -32 -72 -126 -114 -172 -104 -115
-207 -199 -388 -317 -125 -82 -195 -116 -257 -128 -57 -11 -58 -1 -1 22 55 23
336 203 441 284 82 62 188 167 240 238 31 43 76 95 83 95 2 0 0 -10 -4 -22z
m-1421 -83 c-3 -9 -8 -14 -10 -11 -3 3 -2 9 2 15 9 16 15 13 8 -4z m1567 -22
c-1 -20 -40 -123 -62 -162 -34 -59 -163 -205 -220 -247 -90 -67 -128 -78 -280
-79 -152 -2 -154 0 -35 49 132 55 300 179 444 327 87 89 120 116 146 118 4 1
7 -2 7 -6z m245 -30 c-18 -72 -72 -177 -135 -263 -78 -105 -85 -111 -280 -242
-74 -50 -150 -104 -168 -120 -28 -24 -41 -28 -96 -28 -52 0 -78 -7 -137 -34
-81 -38 -150 -59 -84 -26 22 11 72 34 110 51 39 17 111 61 160 97 50 36 149
97 222 134 72 38 146 83 163 101 45 45 107 136 175 255 58 101 84 128 70 75z
m435 -120 c-20 -61 -76 -166 -116 -219 -21 -27 -60 -78 -88 -114 -47 -62 -49
-63 -42 -30 10 55 57 146 134 262 100 150 139 186 112 101z m-1916 -123 c-7
-52 -17 -113 -22 -135 -8 -39 -31 -85 -43 -85 -3 0 -15 -9 -27 -20 -15 -15
-23 -17 -28 -8 -13 21 -3 91 16 118 10 14 30 54 45 90 27 64 67 142 71 137 1
-1 -5 -45 -12 -97z m1496 19 c-7 -16 -30 -44 -51 -63 -38 -35 -117 -81 -125
-73 -2 2 25 35 59 74 35 38 77 87 93 108 l29 39 3 -28 c2 -16 -2 -41 -8 -57z
m-70 -163 c0 -2 -12 -11 -27 -20 l-28 -17 24 20 c23 21 31 25 31 17z m-60 -41
c0 -2 -10 -9 -22 -15 -22 -11 -22 -10 -4 4 21 17 26 19 26 11z m-459 -25 c-22
-19 -41 -26 -41 -15 0 5 51 34 60 34 3 0 -6 -9 -19 -19z m379 -24 c-20 -19
-161 -99 -166 -93 -4 3 166 107 176 107 2 0 -2 -6 -10 -14z m-1112 -183 c32
-9 51 -18 45 -20 -18 -6 -121 16 -128 28 -9 14 20 11 83 -8z"/>
<path d="M6360 5790 c-13 -8 -12 -10 3 -10 9 0 17 5 17 10 0 12 -1 12 -20 0z"/>
<path d="M10445 4352 c-29 -16 -29 -17 -7 -20 23 -4 52 13 52 29 0 12 -9 10
-45 -9z"/>
<path d="M10300 4222 c0 -14 11 -21 26 -15 21 8 17 23 -6 23 -11 0 -20 -4 -20
-8z"/>
<path d="M10210 4204 c0 -9 7 -14 17 -12 25 5 28 28 4 28 -12 0 -21 -6 -21
-16z"/>
<path d="M3183 7264 c-32 -6 -49 -12 -38 -13 16 -1 17 -3 6 -10 -35 -22 96
-32 604 -46 110 -4 220 -8 245 -10 25 -2 79 -7 120 -10 41 -3 156 -19 255 -36
166 -28 243 -45 384 -86 66 -19 253 -95 384 -157 55 -26 111 -46 130 -46 31 1
31 1 12 16 -11 9 -87 49 -170 89 -299 146 -668 238 -1080 269 -565 43 -781 53
-852 40z"/>
<path d="M4038 7243 c7 -3 16 -2 19 1 4 3 -2 6 -13 5 -11 0 -14 -3 -6 -6z"/>
<path d="M3886 6775 c4 -8 17 -15 30 -15 15 0 24 6 24 15 0 10 -10 15 -30 15
-22 0 -28 -4 -24 -15z"/>
<path d="M3970 6760 c0 -5 5 -10 10 -10 6 0 10 5 10 10 0 6 -4 10 -10 10 -5 0
-10 -4 -10 -10z"/>
<path d="M3728 6753 c7 -3 16 -2 19 1 4 3 -2 6 -13 5 -11 0 -14 -3 -6 -6z"/>
<path d="M3495 6689 c-4 -6 -5 -12 -2 -15 7 -7 37 7 37 17 0 13 -27 11 -35 -2z"/>
<path d="M3475 6486 c-44 -23 -127 -70 -185 -103 -58 -33 -170 -95 -250 -137
-80 -41 -142 -76 -138 -76 3 0 61 22 127 48 67 27 121 45 121 40 0 -4 -5 -8
-11 -8 -17 0 -84 -43 -73 -47 12 -4 138 63 364 193 47 27 104 58 128 68 29 13
41 24 37 34 -3 7 -5 18 -5 23 0 18 -37 7 -115 -35z"/>
<path d="M3960 6520 c-42 -6 -117 -37 -108 -45 7 -7 188 8 188 15 0 22 -38 36
-80 30z"/>
<path d="M3749 6476 c-2 -2 -36 -9 -74 -14 -117 -16 -318 -123 -580 -307 -127
-89 -183 -125 -195 -125 -6 0 -9 -5 -7 -11 2 -13 -121 -62 -139 -55 -7 3 -14
1 -16 -4 -3 -11 -14 -13 -178 -36 -92 -12 -130 -14 -190 -5 -71 10 -187 18
-400 26 -110 5 -149 14 -202 52 -32 21 -41 24 -48 13 -7 -11 -15 -11 -49 5
-47 21 -60 15 -42 -19 8 -13 11 -28 7 -34 -10 -17 18 -39 104 -82 47 -23 93
-47 104 -52 10 -5 55 -22 100 -36 73 -24 95 -26 226 -25 80 1 192 6 250 12
203 21 410 63 410 82 0 5 -43 9 -95 9 -52 0 -95 4 -95 8 0 5 48 23 108 41 110
34 186 70 374 180 123 71 146 93 61 56 l-58 -25 30 25 c49 41 304 191 381 224
38 16 99 38 135 47 35 10 66 21 69 26 3 4 17 11 30 17 23 9 23 10 4 10 -11 1
-23 -1 -25 -3z"/>
<path d="M5185 6440 c3 -5 12 -7 20 -3 21 7 19 13 -6 13 -11 0 -18 -4 -14 -10z"/>
<path d="M3016 6184 c-11 -8 -16 -14 -10 -14 13 0 39 18 34 24 -3 2 -14 -2
-24 -10z"/>
<path d="M3255 6190 c-3 -6 1 -7 9 -4 18 7 21 14 7 14 -6 0 -13 -4 -16 -10z"/>
<path d="M8800 6155 c0 -10 41 -25 52 -19 8 5 5 10 -8 15 -22 9 -44 11 -44 4z"/>
<path d="M2135 6060 c28 -12 85 -12 85 0 0 6 -24 10 -52 9 -39 0 -48 -3 -33
-9z"/>
<path d="M8068 6043 c7 -3 16 -2 19 1 4 3 -2 6 -13 5 -11 0 -14 -3 -6 -6z"/>
<path d="M4890 6023 c-212 -21 -346 -45 -700 -124 -47 -10 -122 -26 -166 -34
-45 -8 -92 -19 -105 -24 l-24 -10 25 0 c13 -1 67 8 120 18 494 100 738 130
1087 133 133 1 240 4 239 6 -2 2 -19 5 -37 8 -19 2 -50 6 -69 9 -19 2 -66 9
-105 14 -67 10 -190 12 -265 4z"/>
<path d="M6980 5970 c0 -19 3 -21 12 -12 9 9 9 15 0 24 -9 9 -12 7 -12 -12z"/>
<path d="M3813 5813 c9 -2 23 -2 30 0 6 3 -1 5 -18 5 -16 0 -22 -2 -12 -5z"/>
<path d="M3760 5800 c-13 -8 -12 -10 3 -10 9 0 17 5 17 10 0 12 -1 12 -20 0z"/>
<path d="M7727 5796 c-3 -8 1 -17 9 -20 8 -3 14 1 14 9 0 20 -17 28 -23 11z"/>
<path d="M7864 5797 c-3 -9 -1 -24 4 -33 9 -16 10 -15 17 5 8 27 -11 54 -21
28z"/>
<path d="M8505 5790 c3 -5 11 -10 16 -10 6 0 7 5 4 10 -3 6 -11 10 -16 10 -6
0 -7 -4 -4 -10z"/>
<path d="M7996 5745 c-9 -26 -7 -42 7 -48 8 -3 12 5 11 24 -1 35 -9 46 -18 24z"/>
<path d="M4210 5719 c-102 -28 -172 -51 -167 -55 5 -5 227 53 236 62 7 7 -32
3 -69 -7z"/>
<path d="M8130 5705 c-7 -8 -8 -15 -2 -15 5 0 15 7 22 15 7 8 8 15 2 15 -5 0
-15 -7 -22 -15z"/>
<path d="M8246 5656 c-20 -31 -20 -36 -1 -36 9 0 15 -10 16 -22 1 -13 5 -3 10
22 10 53 -2 71 -25 36z"/>
<path d="M4008 5653 c7 -3 16 -2 19 1 4 3 -2 6 -13 5 -11 0 -14 -3 -6 -6z"/>
<path d="M8020 5613 c0 -6 -3 -18 -6 -27 -9 -24 15 -19 37 7 24 29 24 32 -6
32 -14 0 -25 -5 -25 -12z"/>
<path d="M4060 5539 c0 -5 5 -7 10 -4 6 3 10 8 10 11 0 2 -4 4 -10 4 -5 0 -10
-5 -10 -11z"/>
<path d="M4064 5515 c-10 -8 -14 -15 -8 -15 6 0 17 7 24 15 16 19 9 19 -16 0z"/>
<path d="M3985 5474 c-22 -13 -80 -45 -130 -70 -163 -83 -303 -174 -268 -174
5 0 38 19 74 42 71 47 97 63 179 106 115 60 214 122 195 122 -6 0 -28 -12 -50
-26z"/>
<path d="M3155 5396 c-79 -30 -162 -73 -171 -87 -11 -18 30 -2 146 57 113 57
121 67 25 30z"/>
<path d="M4000 5379 c-30 -17 -62 -37 -71 -45 -8 -8 -18 -14 -21 -14 -3 0 -39
-23 -79 -50 -41 -28 -104 -70 -141 -95 -38 -25 -68 -50 -68 -55 0 -6 -5 -10
-11 -10 -9 0 -73 -46 -107 -77 -7 -7 -17 -13 -22 -13 -5 0 -14 -9 -20 -20 -10
-18 -8 -19 15 -10 14 5 25 7 25 3 0 -3 15 11 33 31 18 20 43 36 55 36 11 0 27
8 34 19 7 10 18 19 23 20 9 2 135 99 197 153 51 45 64 53 136 97 40 24 75 47
78 52 7 13 5 12 -56 -22z"/>
<path d="M3565 5300 c-3 -5 -1 -10 4 -10 6 0 11 5 11 10 0 6 -2 10 -4 10 -3 0
-8 -4 -11 -10z"/>
<path d="M9476 5255 c4 -8 8 -15 10 -15 2 0 4 7 4 15 0 8 -4 15 -10 15 -5 0
-7 -7 -4 -15z"/>
<path d="M9405 5230 c-3 -5 -1 -10 4 -10 6 0 11 5 11 10 0 6 -2 10 -4 10 -3 0
-8 -4 -11 -10z"/>
<path d="M9573 5192 c-47 -50 -48 -52 -33 -52 12 0 90 80 90 93 0 15 -17 4
-57 -41z"/>
<path d="M3420 5215 c-14 -8 -32 -17 -40 -21 -12 -6 -145 -90 -159 -101 -2 -2
-1 -6 3 -10 4 -4 10 -3 14 3 4 6 22 19 40 28 18 9 60 34 93 56 33 21 65 41 72
43 7 2 10 7 7 10 -3 3 -17 0 -30 -8z"/>
<path d="M3528 5207 c-16 -13 -28 -26 -28 -29 0 -9 69 35 70 45 0 12 -14 7
-42 -16z"/>
<path d="M9457 5131 c-3 -14 -1 -18 9 -14 16 6 18 19 5 27 -5 3 -11 -3 -14
-13z"/>
<path d="M3375 5089 c-11 -17 1 -21 15 -4 8 9 8 15 2 15 -6 0 -14 -5 -17 -11z"/>
<path d="M3149 5043 c-13 -15 -12 -15 9 -4 23 12 28 21 13 21 -5 0 -15 -7 -22
-17z"/>
<path d="M9685 4970 c-3 -6 1 -7 9 -4 18 7 21 14 7 14 -6 0 -13 -4 -16 -10z"/>
<path d="M3419 4963 c-1 -5 -1 -11 0 -15 0 -5 -7 -8 -17 -8 -10 0 -24 -8 -33
-17 -8 -10 -32 -33 -54 -50 -22 -18 -35 -33 -30 -33 6 0 33 18 60 40 28 22 55
40 61 40 12 0 44 32 44 43 0 10 -30 9 -31 0z"/>
<path d="M9900 4959 c0 -5 5 -7 10 -4 6 3 10 8 10 11 0 2 -4 4 -10 4 -5 0 -10
-5 -10 -11z"/>
<path d="M3255 4820 c-3 -6 1 -7 9 -4 18 7 21 14 7 14 -6 0 -13 -4 -16 -10z"/>
<path d="M1654 4718 c-8 -13 5 -27 46 -48 44 -22 133 -27 190 -10 19 6 51 12
71 14 19 2 44 8 55 15 16 10 12 11 -25 6 -39 -5 -43 -4 -31 10 12 14 4 15 -81
10 -52 -4 -122 -2 -157 3 -34 5 -65 5 -68 0z"/>
<path d="M2584 4400 c-43 -21 -92 -45 -109 -51 l-30 -13 28 -4 c28 -3 148 50
197 88 42 33 1 24 -86 -20z"/>
<path d="M11500 4302 c0 -10 60 -55 66 -49 6 6 -43 57 -56 57 -5 0 -10 -4 -10
-8z"/>
<path d="M11520 4230 c27 -21 40 -25 40 -12 0 9 -44 32 -58 32 -4 0 4 -9 18
-20z"/>
<path d="M11580 4055 c0 -9 6 -12 15 -9 8 4 12 10 9 15 -8 14 -24 10 -24 -6z"/>
<path d="M11551 3799 c-27 -22 -28 -42 -1 -35 11 3 29 9 40 12 19 5 24 14 18
31 -5 14 -35 9 -57 -8z"/>
<path d="M6411 3706 c-9 -11 -10 -20 -3 -33 9 -16 11 -15 17 10 9 33 2 43 -14
23z"/>
<path d="M6220 3638 c-25 -34 -49 -67 -53 -75 -16 -26 9 -12 56 32 26 25 52
45 57 45 6 0 10 14 10 30 0 45 -20 36 -70 -32z"/>
<path d="M8463 3643 c-13 -8 -23 -24 -23 -34 0 -17 7 -19 58 -18 31 1 47 4 36
6 -12 2 -29 12 -39 23 -16 18 -15 18 27 14 42 -5 42 -5 18 10 -31 19 -49 19
-77 -1z"/>
<path d="M8260 3578 c0 -28 10 -42 32 -51 27 -10 37 41 13 60 -28 19 -45 16
-45 -9z"/>
<path d="M10740 3439 c0 -5 5 -7 10 -4 6 3 10 8 10 11 0 2 -4 4 -10 4 -5 0
-10 -5 -10 -11z"/>
<path d="M10735 3410 c-3 -5 3 -10 15 -10 12 0 18 5 15 10 -3 6 -10 10 -15 10
-5 0 -12 -4 -15 -10z"/>
<path d="M8190 3365 l-25 -14 33 -1 c22 0 32 5 32 15 0 18 -8 18 -40 0z"/>
<path d="M11168 3329 c-41 -21 -57 -39 -34 -39 18 0 94 38 102 51 9 15 -28 8
-68 -12z"/>
<path d="M5920 3278 c-12 -22 -12 -22 6 -6 10 10 15 20 12 24 -4 3 -12 -5 -18
-18z"/>
<path d="M10652 3283 c-6 -2 -10 -9 -6 -14 8 -14 31 -11 38 6 5 15 -7 18 -32
8z"/>
<path d="M10330 3222 c0 -6 10 -23 23 -38 22 -25 25 -26 60 -15 51 17 47 37
-9 46 -26 3 -53 9 -60 12 -8 3 -14 0 -14 -5z"/>
<path d="M3930 3188 c-12 -22 -12 -22 6 -6 10 10 15 20 12 24 -4 3 -12 -5 -18
-18z"/>
<path d="M10465 3180 c3 -5 10 -10 16 -10 5 0 9 5 9 10 0 6 -7 10 -16 10 -8 0
-12 -4 -9 -10z"/>
<path d="M3807 3019 c-125 -85 -154 -110 -194 -166 -53 -75 -137 -233 -128
-242 6 -6 198 190 258 264 17 22 77 86 131 142 55 57 96 103 90 102 -5 0 -75
-45 -157 -100z"/>
<path d="M3887 3012 c-19 -20 -23 -37 -7 -27 10 6 33 45 27 45 -2 0 -11 -8
-20 -18z"/>
<path d="M5990 2908 l-23 -33 28 27 c16 15 26 30 23 33 -3 4 -16 -9 -28 -27z"/>
<path d="M2463 2434 c-9 -23 17 -44 53 -44 59 0 50 31 -16 50 -24 7 -32 6 -37
-6z"/>
<path d="M5385 2289 c-100 -78 -279 -248 -270 -257 3 -3 20 8 38 25 17 16 66
56 107 88 83 66 196 171 211 198 5 9 8 17 7 16 -2 0 -43 -32 -93 -70z"/>
<path d="M5796 2305 c-9 -26 -7 -32 5 -12 6 10 9 21 6 23 -2 3 -7 -2 -11 -11z"/>
<path d="M3244 2257 c-21 -56 -41 -138 -34 -142 10 -6 30 26 30 49 0 8 8 30
18 48 19 33 19 58 1 58 -5 0 -12 -6 -15 -13z"/>
<path d="M4921 2134 c-55 -82 -148 -261 -139 -269 2 -3 32 46 66 107 34 62 78
141 97 176 20 34 34 62 31 62 -2 0 -27 -34 -55 -76z"/>
<path d="M4904 1745 c-44 -80 -65 -105 -133 -163 -19 -16 -32 -34 -30 -40 2
-6 34 17 72 51 51 47 76 80 102 136 20 40 34 75 31 78 -2 2 -21 -26 -42 -62z"/>
<path d="M4920 1565 c-6 -8 -9 -19 -5 -25 3 -5 1 -10 -5 -10 -6 0 -8 -4 -5
-10 3 -5 2 -10 -2 -10 -12 0 -46 -77 -41 -92 2 -6 17 11 34 38 39 66 46 84 31
84 -7 0 -1 9 13 20 19 15 21 20 9 20 -9 0 -22 -7 -29 -15z"/>
<path d="M6620 816 c0 -13 44 -27 142 -46 106 -21 216 -27 153 -9 -16 4 -79
18 -140 29 -60 12 -120 24 -132 27 -13 3 -23 3 -23 -1z"/>
</g>
</svg>
